<?xml version="1.0" standalone="no"?>
<!DOCTYPE svg PUBLIC "-//W3C//DTD SVG 20010904//EN"
 "http://www.w3.org/TR/2001/REC-SVG-20010904/DTD/svg10.dtd">
<svg version="1.0" xmlns="http://www.w3.org/2000/svg"
 width="300.000000pt" height="200.000000pt" viewBox="0 0 300.000000 200.000000"
 preserveAspectRatio="xMidYMid meet">
<metadata>
Created by potrace 1.10, written by Peter Selinger 2001-2011
</metadata>
<g transform="translate(0.000000,200.000000) scale(0.100000,-0.100000)"
fill="#000000" stroke="none">
<path d="M884 1978 c3 -13 9 -48 12 -78 6 -50 3 -61 -30 -121 -31 -56 -36 -75
-35 -125 1 -66 10 -106 24 -111 24 -7 38 18 44 78 l6 64 19 -43 c19 -42 19
-44 1 -137 -15 -75 -16 -98 -7 -107 10 -10 17 -10 31 -1 10 7 28 9 39 6 14 -3
24 2 31 16 7 12 18 21 25 21 8 0 21 12 31 26 9 14 25 34 35 44 10 10 22 36 26
56 8 43 -2 211 -16 269 -6 22 -7 68 -4 103 4 43 3 62 -5 62 -15 0 -14 -112 1
-220 14 -101 14 -215 -1 -250 -8 -19 -9 -6 -4 56 4 56 2 83 -6 88 -8 5 -11
-15 -11 -71 0 -57 -5 -88 -18 -113 -26 -48 -46 -51 -26 -4 18 44 31 178 18
187 -5 3 -10 -20 -10 -51 -1 -63 -25 -156 -48 -187 -23 -32 -29 -11 -12 46 17
57 21 156 7 178 -6 9 -9 -11 -9 -57 0 -100 -37 -221 -61 -197 -7 7 -3 41 11
102 l21 91 -25 47 c-13 26 -28 48 -33 49 -5 0 -14 -28 -20 -63 -14 -89 -32
-91 -37 -4 -3 63 -1 74 36 150 l40 81 -13 71 c-7 39 -17 71 -23 71 -6 0 -8
-10 -4 -22z"/>
<path d="M1636 1973 c10 -16 36 -53 59 -85 28 -37 51 -86 69 -145 50 -161 56
-171 106 -208 98 -72 214 -106 196 -58 -5 11 -2 13 11 8 10 -3 30 -9 46 -12
23 -5 27 -2 27 16 0 14 6 21 19 21 21 0 48 27 37 37 -3 4 -12 -1 -19 -11 -12
-16 -17 -16 -80 -2 -79 19 -114 35 -162 77 -41 36 -48 25 -7 -13 29 -29 127
-78 154 -78 25 0 48 -11 48 -22 0 -23 -185 37 -211 68 -6 8 -16 14 -22 14 -23
0 28 -40 84 -64 57 -26 76 -46 43 -46 -25 0 -148 68 -180 99 -19 19 -35 52
-48 97 -10 38 -29 95 -42 127 -24 59 -122 207 -138 207 -4 0 0 -12 10 -27z"/>
<path d="M1910 1989 c0 -35 33 -110 53 -121 51 -27 142 -100 160 -128 25 -40
10 -38 -67 5 -99 55 -123 43 -64 -33 22 -28 57 -55 110 -82 88 -46 102 -60 60
-60 -41 0 -123 29 -155 57 -41 33 -58 28 -20 -7 33 -30 121 -61 177 -64 25 -1
31 3 31 19 0 14 -21 32 -74 62 -75 43 -116 75 -132 106 -15 26 11 22 62 -12
24 -16 56 -32 70 -36 73 -18 26 66 -75 134 -84 57 -89 63 -106 116 -14 44 -30
68 -30 44z"/>
<path d="M0 1576 c0 -17 51 -57 113 -91 33 -17 42 -18 109 -7 91 15 158 4 222
-36 39 -25 44 -31 31 -42 -8 -7 -15 -19 -15 -27 0 -10 -6 -13 -17 -8 -35 13
-73 17 -73 8 0 -5 11 -20 26 -33 23 -22 36 -25 141 -30 108 -5 115 -6 100 -21
-22 -22 -151 -34 -207 -19 -49 13 -66 6 -24 -11 34 -14 87 -15 169 -5 52 7 58
6 47 -7 -20 -24 -169 -60 -226 -54 -43 4 -47 3 -32 -9 19 -14 96 -10 150 7 33
10 49 3 26 -11 -43 -27 -145 -52 -189 -47 l-46 6 29 -15 c27 -15 49 -15 101 0
11 4 5 -1 -13 -9 -18 -8 -56 -16 -85 -17 -54 -3 -135 26 -269 93 -63 32 -68
33 -68 20 0 -8 133 -73 228 -110 29 -12 68 -21 88 -21 43 0 149 35 185 61 15
10 31 19 37 19 5 0 15 6 21 14 7 8 44 15 98 19 134 10 145 15 167 73 28 75 27
178 -3 230 -35 63 -90 80 -151 49 -21 -11 -32 -27 -40 -55 -6 -22 -8 -45 -5
-50 4 -6 -11 -7 -38 -4 -26 4 -53 2 -65 -5 -18 -10 -28 -7 -62 18 -53 38 -162
65 -210 51 -81 -24 -150 -5 -217 60 -23 21 -33 26 -33 16z m783 -54 c43 -38
58 -124 36 -207 -24 -92 -24 -92 -97 -99 -37 -4 -87 -9 -112 -11 l-45 -5 32
15 c19 8 39 29 49 50 27 57 18 63 -85 57 l-91 -5 0 27 c0 42 44 76 97 76 24 0
52 -4 61 -9 15 -8 17 -4 14 33 -7 86 78 133 141 78z m-349 -168 c9 -3 16 -10
16 -15 0 -14 -24 -11 -46 6 -16 12 -17 14 -2 15 9 0 23 -3 32 -6z"/>
<path d="M2342 1465 c-7 -14 -12 -38 -12 -52 0 -26 0 -26 -23 8 -12 19 -27 34
-32 34 -19 0 -16 -48 4 -76 l22 -29 -31 0 c-61 0 -92 -40 -55 -70 15 -12 64
-10 98 5 15 6 16 4 7 -20 -15 -38 -12 -65 7 -72 26 -10 53 32 53 84 l0 44 50
-27 c76 -41 77 -44 35 -109 -36 -58 -60 -67 -60 -25 0 16 14 34 43 57 27 21
37 33 27 33 -22 0 -95 -72 -95 -93 0 -20 29 -49 44 -44 11 3 81 98 89 120 3 9
8 9 18 0 10 -11 9 -17 -9 -36 -23 -24 -29 -52 -13 -61 5 -3 7 -15 4 -25 -3
-10 0 -22 6 -25 5 -4 8 -13 5 -20 -3 -7 2 -19 11 -26 8 -7 15 -20 15 -29 0
-28 21 -41 65 -41 58 0 220 37 285 65 30 13 65 27 78 30 12 4 22 11 22 17 0 6
-7 7 -17 2 -10 -4 -70 -25 -133 -47 -97 -34 -129 -40 -200 -41 -69 -1 -85 2
-88 15 -2 12 5 14 33 11 20 -2 35 0 35 6 0 6 -19 12 -42 14 -32 2 -44 8 -46
21 -3 17 2 18 55 13 39 -4 52 -3 38 3 -11 5 -36 10 -55 10 -79 2 -72 28 15 54
35 10 42 15 25 16 -14 1 -39 -3 -56 -8 -19 -5 -37 -5 -45 0 -11 7 -3 19 34 55
49 47 57 60 31 50 -11 -4 -14 -1 -12 12 4 19 101 72 134 72 12 0 45 -16 74
-35 29 -19 59 -35 69 -35 19 0 107 41 136 63 38 29 9 26 -39 -4 -71 -45 -101
-46 -159 -10 -58 38 -104 40 -166 8 -43 -22 -54 -33 -65 -71 -6 -17 -8 -17
-29 -2 -12 9 -41 26 -64 38 -48 25 -55 38 -19 38 24 0 56 23 56 40 0 20 -40
31 -75 21 l-35 -9 0 42 c0 62 -28 86 -48 41z m32 -68 l-6 -49 25 17 c27 17 78
17 77 0 -1 -15 -71 -37 -96 -30 -33 8 -42 85 -17 129 12 20 23 -23 17 -67z
m-59 -7 c27 -39 31 -57 9 -42 -15 10 -54 63 -54 73 0 20 19 7 45 -31z m15 -60
c26 -18 -17 -41 -70 -38 -49 3 -56 16 -19 35 29 15 69 16 89 3z m40 -45 c0
-28 -20 -75 -32 -75 -12 0 -10 45 4 75 14 32 28 32 28 0z"/>
<path d="M972 684 c-29 -20 -49 -61 -65 -130 l-13 -57 -65 -17 c-35 -10 -86
-26 -114 -37 -27 -12 -68 -26 -90 -32 l-40 -11 48 46 c80 79 55 119 -39 63
-59 -36 -104 -82 -182 -189 -65 -89 -105 -116 -270 -184 -78 -32 -142 -62
-142 -67 0 -5 21 0 48 10 26 11 72 29 102 41 160 63 236 122 315 241 41 62 81
100 147 142 60 37 66 6 9 -46 -52 -47 -54 -52 -36 -87 9 -17 22 -58 30 -93
l15 -62 -4 56 c-3 31 -11 70 -20 86 l-15 30 42 11 c23 6 89 27 145 47 57 20
106 34 109 31 3 -3 3 -16 -1 -30 -5 -19 -27 -36 -93 -70 -80 -41 -88 -44 -99
-28 -20 25 -17 7 5 -36 31 -62 91 -145 91 -128 0 9 -7 28 -16 42 -9 13 -15 26
-13 27 2 1 29 14 59 28 54 25 56 25 90 8 19 -10 49 -18 65 -19 27 -1 25 -3
-20 -20 -62 -25 -66 -25 -35 0 41 32 8 22 -53 -16 -58 -36 -80 -66 -29 -40 44
22 161 56 196 56 l31 -1 -30 -25 c-16 -14 -68 -43 -115 -66 -86 -42 -244 -147
-235 -156 3 -3 31 12 63 35 31 22 103 64 160 93 57 29 119 68 139 86 35 33 38
34 99 28 53 -6 63 -10 68 -28 12 -49 86 -145 138 -180 80 -55 92 -43 12 13
-70 50 -77 59 -121 141 l-24 45 73 5 c63 4 77 2 106 -17 18 -12 38 -24 45 -26
8 -3 3 -14 -15 -32 l-26 -28 -51 48 c-28 26 -51 43 -51 38 0 -13 40 -56 73
-78 15 -9 24 -21 21 -26 -3 -5 -1 -9 4 -9 5 0 35 31 66 69 31 38 63 72 71 75
8 3 15 10 15 16 0 7 -6 6 -19 -1 -15 -10 -27 -6 -75 25 -34 23 -56 45 -56 56
0 26 18 35 38 17 9 -8 37 -23 62 -34 67 -29 73 -40 72 -141 0 -78 1 -82 8 -37
16 97 12 125 -20 161 -32 37 -55 104 -45 134 9 28 32 25 39 -4 9 -36 50 -80
117 -127 64 -46 65 -46 75 -139 3 -36 10 -75 15 -86 12 -33 69 -94 88 -94 11
0 7 8 -15 28 -52 44 -67 77 -74 164 -8 90 -6 87 -110 161 -30 22 -53 49 -70
84 -26 55 -47 66 -70 38 -15 -18 -15 -70 0 -109 l10 -27 -50 27 c-28 15 -50
32 -50 38 0 6 7 47 15 91 9 43 13 85 11 92 -7 16 -77 36 -281 78 -93 19 -170
35 -170 35 0 0 -11 -7 -23 -16z m138 -27 l86 -22 -21 -72 -20 -71 -24 19 c-31
26 -71 25 -78 -1 -4 -16 -11 -19 -26 -14 -12 4 -42 9 -68 13 l-47 6 18 58 c24
75 45 107 73 107 12 -1 60 -11 107 -23z m229 -47 l93 -23 -6 -49 c-7 -54 -48
-217 -65 -262 l-12 -29 -107 7 c-106 7 -259 28 -317 44 -25 7 -30 14 -33 45
-3 34 13 145 22 155 8 7 204 -35 219 -48 4 -3 -4 -39 -18 -80 -14 -41 -24 -79
-22 -84 4 -11 57 128 57 150 0 27 18 14 50 -36 18 -27 34 -50 36 -50 10 0 2
20 -21 54 -13 20 -23 36 -20 36 2 0 42 -20 89 -45 48 -25 89 -45 92 -45 17 0
-16 25 -69 52 -54 27 -59 32 -40 39 30 11 36 25 17 43 -17 18 -89 22 -99 6 -3
-5 -10 -10 -15 -10 -4 0 0 23 11 50 10 28 19 61 19 73 0 29 9 39 29 33 9 -2
58 -14 110 -26z m-208 -110 c10 -6 19 -16 19 -22 0 -15 -61 -2 -80 17 -13 13
-11 15 14 15 15 0 36 -5 47 -10z m147 -24 c2 -3 1 -9 -3 -15 -7 -13 -61 -13
-90 -1 -19 8 -19 8 5 19 22 9 77 7 88 -3z m-402 -98 c-3 -13 -6 -33 -6 -45 0
-13 -6 -23 -12 -23 -7 0 -36 -11 -64 -24 l-51 -24 -16 28 -16 27 77 40 c93 48
96 49 88 21z m561 -88 c18 -16 40 -30 48 -30 21 0 19 -14 -5 -35 -18 -17 -21
-16 -64 9 -43 25 -44 27 -34 56 5 17 12 30 15 30 3 0 21 -13 40 -30z"/>
<path d="M1086 424 c-14 -15 -26 -31 -26 -37 0 -6 16 4 35 23 19 19 35 35 35
37 0 10 -21 -1 -44 -23z"/>
</g>
</svg>
